<svg width="25" height="24" viewBox="0 0 25 24" fill="none" xmlns="http://www.w3.org/2000/svg">
<path d="M20.46 8.95999C19.79 8.21999 18.78 7.78999 17.38 7.63999V6.87999C17.38 5.50999 16.8 4.18999 15.78 3.26999C14.75 2.32999 13.41 1.88999 12.02 2.01999C9.62999 2.24999 7.61999 4.55999 7.61999 7.05999V7.63999C6.21999 7.78999 5.20999 8.21999 4.53999 8.95999C3.56999 10.04 3.59999 11.48 3.70999 12.48L4.40999 18.05C4.61999 20 5.40999 22 9.70999 22H15.29C19.59 22 20.38 20 20.59 18.06L21.29 12.47C21.4 11.48 21.42 10.04 20.46 8.95999ZM12.16 3.40999C13.16 3.31999 14.11 3.62999 14.85 4.29999C15.58 4.95999 15.99 5.89999 15.99 6.87999V7.57999H9.00999V7.05999C9.00999 5.27999 10.48 3.56999 12.16 3.40999ZM8.91999 13.15H8.90999C8.35999 13.15 7.90999 12.7 7.90999 12.15C7.90999 11.6 8.35999 11.15 8.90999 11.15C9.46999 11.15 9.91999 11.6 9.91999 12.15C9.91999 12.7 9.46999 13.15 8.91999 13.15ZM15.92 13.15H15.91C15.36 13.15 14.91 12.7 14.91 12.15C14.91 11.6 15.36 11.15 15.91 11.15C16.47 11.15 16.92 11.6 16.92 12.15C16.92 12.7 16.47 13.15 15.92 13.15Z" fill="#BABCC4"/>
</svg>
