<svg width="25" height="24" viewBox="0 0 25 24" fill="none" xmlns="http://www.w3.org/2000/svg">
<path d="M21.5169 7.99175C21.9148 8.55833 21.4405 9.25 20.7482 9.25H3.5C2.94772 9.25 2.5 8.80228 2.5 8.25V6.42C2.5 3.98 4.48 2 6.92 2H9.24C10.87 2 11.38 2.53 12.03 3.4L13.43 5.26C13.74 5.67 13.78 5.72 14.36 5.72H17.15C18.9546 5.72 20.5516 6.61709 21.5169 7.99175Z" fill="#BABCC4"/>
<path d="M21.4834 10.7497C22.0343 10.7497 22.4815 11.1954 22.4834 11.7463L22.5 16.65C22.5 19.6 20.1 22 17.15 22H7.85C4.9 22 2.5 19.6 2.5 16.65V11.75C2.5 11.1977 2.94771 10.75 3.49999 10.75L21.4834 10.7497Z" fill="#BABCC4"/>
</svg>
