<svg width="25" height="24" viewBox="0 0 25 24" fill="none" xmlns="http://www.w3.org/2000/svg">
<path d="M16.5 4.25C16.5 5.49 15.49 6.5 14.25 6.5H10.75C10.13 6.5 9.57 6.25 9.16 5.84C8.75 5.43 8.5 4.87 8.5 4.25C8.5 3.01 9.51 2 10.75 2H14.25C14.87 2 15.43 2.25 15.84 2.66C16.25 3.07 16.5 3.63 16.5 4.25Z" fill="#BABCC4"/>
<path d="M19.33 5.02999C19.1 4.83999 18.84 4.68999 18.56 4.57999C18.27 4.46999 17.98 4.69999 17.92 4.99999C17.58 6.70999 16.07 7.99999 14.25 7.99999H10.75C9.75 7.99999 8.81 7.60999 8.1 6.89999C7.58 6.37999 7.22 5.71999 7.08 5.00999C7.02 4.70999 6.72 4.46999 6.43 4.58999C5.27 5.05999 4.5 6.11999 4.5 8.24999V18C4.5 21 6.29 22 8.5 22H16.5C18.71 22 20.5 21 20.5 18V8.24999C20.5 6.61999 20.05 5.61999 19.33 5.02999ZM8.5 12.25H12.5C12.91 12.25 13.25 12.59 13.25 13C13.25 13.41 12.91 13.75 12.5 13.75H8.5C8.09 13.75 7.75 13.41 7.75 13C7.75 12.59 8.09 12.25 8.5 12.25ZM16.5 17.75H8.5C8.09 17.75 7.75 17.41 7.75 17C7.75 16.59 8.09 16.25 8.5 16.25H16.5C16.91 16.25 17.25 16.59 17.25 17C17.25 17.41 16.91 17.75 16.5 17.75Z" fill="#BABCC4"/>
</svg>
