<svg width="36" height="36" viewBox="0 0 36 36" fill="none" xmlns="http://www.w3.org/2000/svg">
<path d="M18.795 30.63H9.315C4.575 30.63 3 27.48 3 24.315V11.685C3 6.94501 4.575 5.37001 9.315 5.37001H18.795C23.535 5.37001 25.11 6.94501 25.11 11.685V24.315C25.11 29.055 23.52 30.63 18.795 30.63Z" stroke="#006648" stroke-width="1.5" stroke-linecap="round" stroke-linejoin="round"/>
<path d="M29.2801 25.65L25.1101 22.725V13.26L29.2801 10.335C31.3201 8.91001 33.0001 9.78001 33.0001 12.285V23.715C33.0001 26.22 31.3201 27.09 29.2801 25.65Z" stroke="#006648" stroke-width="1.5" stroke-linecap="round" stroke-linejoin="round"/>
<path d="M17.25 16.5C18.4926 16.5 19.5 15.4926 19.5 14.25C19.5 13.0074 18.4926 12 17.25 12C16.0074 12 15 13.0074 15 14.25C15 15.4926 16.0074 16.5 17.25 16.5Z" stroke="#006648" stroke-width="1.5" stroke-linecap="round" stroke-linejoin="round"/>
</svg>
